<?xml version="1.0" standalone="no"?>
<!DOCTYPE svg PUBLIC "-//W3C//DTD SVG 20010904//EN"
 "http://www.w3.org/TR/2001/REC-SVG-20010904/DTD/svg10.dtd">
<svg version="1.0" xmlns="http://www.w3.org/2000/svg"
 width="512.000000pt" height="512.000000pt" viewBox="0 0 512.000000 512.000000"
 preserveAspectRatio="xMidYMid meet">
<metadata>
Created by potrace 1.14, written by Peter Selinger 2001-2017
</metadata>
<g transform="translate(0.000000,512.000000) scale(0.100000,-0.100000)"
fill="#000000" stroke="none">
<path d="M0 2560 l0 -2560 2560 0 2560 0 0 2560 0 2560 -2560 0 -2560 0 0
-2560z m930 1889 c0 -5 11 -27 25 -49 14 -22 38 -64 54 -92 16 -29 57 -101 91
-160 38 -66 60 -116 58 -130 -3 -21 -9 -23 -79 -26 l-77 -3 -7 -1322 c-3 -727
-5 -1401 -3 -1497 l3 -175 175 -3 c96 -2 770 0 1497 3 l1322 7 3 77 c3 70 5
76 26 79 12 2 46 -10 75 -26 261 -147 363 -207 369 -216 10 -15 1 -24 -60 -56
-31 -17 -75 -42 -97 -55 -22 -14 -47 -28 -55 -32 -8 -3 -26 -14 -40 -23 -14
-9 -60 -36 -103 -59 -106 -56 -115 -53 -119 47 l-3 77 -1582 3 -1583 2 0 1585
0 1585 -80 0 c-69 0 -80 2 -81 18 -2 33 3 48 46 122 23 41 60 107 80 145 21
39 46 82 56 97 11 14 19 30 19 36 0 20 41 61 55 55 8 -3 15 -9 15 -14z m1806
-826 c253 -547 478 -1105 837 -2080 l45 -123 -173 0 -172 0 -65 183 c-36 100
-83 233 -104 295 l-39 112 -520 0 -520 0 -105 -295 -105 -295 -163 0 c-152 0
-164 1 -157 18 3 9 56 152 117 317 273 742 450 1185 649 1627 56 123 110 244
122 271 l21 47 148 0 149 0 35 -77z"/>
<path d="M2528 3310 c-9 -19 -41 -93 -73 -165 -100 -228 -335 -841 -335 -875
0 -7 146 -10 425 -10 234 0 425 4 425 9 0 27 -319 843 -388 991 l-39 85 -15
-35z"/>
</g>
</svg>
